# xmcd
#
# Track frame offsets:
#	150
#	11747
#	22740
#	32107
#	45970
#	54457
#	65072
#	76180
#	85372
#	98930
#	108400
#	120252
#	131612
#	144657
#	156557
#	170277
#	181900
#	194285
#	204400
#	216277
#	226107
#	239330
#	254980
#	270030
#	283982
#	296720
#
# Disc length: 4160 seconds
#
# Revision: 1
# Processed by: cddbd v1.5.1PL0 Copyright (c) Steve Scherf et al.
# Submitted via: EasyCDDAExtractor 7.0.6.1
#
DISCID=73103e1a
DTITLE=Rick and Thel Carey - Rick and Thel Carey Let's Pull Together
DYEAR=1900
DGENRE=Country
TTITLE0=I'll Never Be Fooled Again
TTITLE1=Lookin' Back To See
TTITLE2=Red Wing
TTITLE3=The Hands You're Holding Now
TTITLE4=Feudin' And Fightin'
TTITLE5=Everybody Knew But You And Me
TTITLE6=We Must Have Been Out Of Our Minds
TTITLE7=mr Asn Mrs Minus The Kisses
TTITLE8=Maker Of Raindrops And Roses
TTITLE9=House Of Blues
TTITLE10=Come On Home Mary Darling
TTITLE11=God Bless This Old Bomb
TTITLE12=Rusted Love
TTITLE13=I Bet I Know Just What You're Gonna Say
TTITLE14=White Crosses In The Jungle
TTITLE15=Let's Pull Together
TTITLE16=You And Me
TTITLE17=Heaven
TTITLE18=What Would You Do?
TTITLE19=She's A He'a A
TTITLE20=Big Deal
TTITLE21=Bordertown
TTITLE22=Come The Day
TTITLE23=Riverboat Love Song
TTITLE24=If I Hadn't Married You
TTITLE25=Mary Jane Malone
EXTD=
EXTT0=
EXTT1=
EXTT2=
EXTT3=
EXTT4=
EXTT5=
EXTT6=
EXTT7=
EXTT8=
EXTT9=
EXTT10=
EXTT11=
EXTT12=
EXTT13=
EXTT14=
EXTT15=
EXTT16=
EXTT17=
EXTT18=
EXTT19=
EXTT20=
EXTT21=
EXTT22=
EXTT23=
EXTT24=
EXTT25=
PLAYORDER=
